PathFileType	4	(X/Y/Z)	TVC_36_BWA_04_walk_RCNL2025.trc
DataRate	CameraRate	NumFrames	NumMarkers	Units	OrigDataRate	OrigDataStartFrame	OrigNumFrames
100	100	5	27	mm	100	609	695
Frame#	Time	R_Shoulder			L_Shoulder			C7			J_Notch			R_Elbow			L_Elbow			R_Wrist			L_Wrist			R_Asis			L_Asis			R_Psis			L_Psis			Sacral			Thoracic			Sternum			R_Thigh_Lateral			R_Knee_Lateral			R_Shank_Lateral			R_Ankle_Lateral			R_Heel			R_Toe			L_Thigh_Lateral			L_Knee_Lateral			L_Shank_Lateral			L_Ankle_Lateral			L_Heel			L_Toe		
		X1	Y1	Z1	X2	Y2	Z2	X3	Y3	Z3	X4	Y4	Z4	X5	Y5	Z5	X6	Y6	Z6	X7	Y7	Z7	X8	Y8	Z8	X9	Y9	Z9	X10	Y10	Z10	X11	Y11	Z11	X12	Y12	Z12	X13	Y13	Z13	X14	Y14	Z14	X15	Y15	Z15	X16	Y16	Z16	X17	Y17	Z17	X18	Y18	Z18	X19	Y19	Z19	X20	Y20	Z20	X21	Y21	Z21	X22	Y22	Z22	X23	Y23	Z23	X24	Y24	Z24	X25	Y25	Z25	X26	Y26	Z26	X27	Y27	Z27
609	6.08000000	1565.524536	1381.941040	488.869781	1445.196777	1395.078735	160.487381	1475.193726	1441.884277	341.654114	1621.162354	1321.476685	289.861908	1519.277100	1087.734009	567.075134	1416.820435	1112.195679	29.576265	1606.661560	882.520111	534.170807	1611.530579	1025.918488	66.763601	1635.426025	906.875549	380.065155	1558.698486	926.592102	132.932526	1445.822510	914.196045	348.862854	1421.046631	910.219543	268.473938	1433.434570	912.207794	308.668396	1434.178345	1144.686035	326.754761	1658.951660	1176.913086	248.330627	1595.034790	631.719238	445.186798	1585.130615	455.755707	353.575439	1514.226196	261.134979	403.012451	1470.769043	72.989868	331.892181	1421.534180	60.470818	283.644409	1592.087524	45.941105	296.567688	1620.648315	732.400635	10.018066	1734.936768	559.010559	26.625376	1707.671021	358.170135	-34.249092	1787.252319	151.851242	-5.314674	1747.890137	127.860100	38.303005	1918.708740	151.593613	22.715836
610	6.09000000	1566.623291	1381.678711	487.625366	1446.935059	1393.970459	158.890152	1476.659424	1441.351196	340.204773	1623.031006	1321.246094	288.731567	1520.193115	1087.529907	565.970093	1418.901855	1110.643311	29.495840	1608.059937	882.451050	533.740692	1613.312317	1023.981293	67.087688	1638.601318	906.728149	380.161133	1561.924438	925.424561	132.928406	1449.254395	913.708069	348.232391	1423.777710	909.890808	267.778320	1436.516052	911.799438	308.005356	1436.352295	1144.178345	325.883087	1661.236206	1176.712646	247.585999	1597.244019	631.371216	444.910095	1586.585449	455.238556	353.516937	1515.245605	261.069214	403.127014	1471.087158	73.155357	331.881134	1421.634766	60.474922	283.521210	1591.946655	45.836254	296.228668	1623.722656	729.985962	10.933110	1736.929077	555.964294	29.676275	1710.209106	354.678650	-30.904921	1790.577393	149.127197	-1.952093	1750.540771	124.711060	42.408356	1921.614624	148.413208	27.353468
611	6.10000000	1567.819702	1381.438721	486.171967	1448.799194	1392.821167	157.269745	1478.157471	1441.014404	338.889313	1624.832886	1320.914307	287.531403	1521.150146	1087.210693	564.746460	1420.902100	1109.330444	29.206341	1609.514648	882.230225	533.109375	1615.158203	1021.976959	67.454390	1641.547363	906.661743	380.084869	1565.433228	924.374817	132.595749	1451.993652	913.510071	348.104584	1426.795166	909.562317	267.051758	1439.394409	911.536194	307.578171	1438.705933	1144.260132	325.000122	1663.511475	1176.455322	246.760147	1600.154297	631.157959	444.824036	1588.543213	454.861633	353.623352	1515.970947	260.803802	403.060669	1470.774780	72.784393	331.820831	1421.572510	60.576832	283.521790	1591.949463	45.812077	296.282990	1626.719727	727.515808	12.351420	1738.699097	553.113281	32.172886	1712.289062	351.556091	-27.319567	1793.248413	146.074890	2.070006	1752.900024	122.030273	46.065643	1924.154175	145.258743	31.765965
612	6.11000000	1569.072998	1381.212280	484.774597	1450.843994	1391.973022	155.736237	1480.097168	1440.440674	337.244690	1626.577148	1320.623291	286.249268	1522.338745	1087.153076	563.672729	1422.837891	1107.845947	28.521561	1610.958923	882.149139	532.493500	1616.879700	1020.658203	67.213528	1644.152588	906.283447	379.843201	1569.018799	923.419861	131.997925	1455.085571	913.518250	347.626495	1429.629150	909.451233	266.499298	1442.357361	911.484741	307.062897	1441.230591	1142.958862	323.514954	1665.951172	1176.124512	245.916000	1602.920898	631.058289	444.694946	1590.422852	454.667084	353.858276	1516.340088	260.520416	403.009521	1471.220337	73.042229	331.868378	1421.703369	60.621986	283.535461	1592.102783	45.797714	296.465881	1630.612305	725.351746	13.379090	1740.634644	550.260254	34.745422	1714.566772	348.622345	-24.557198	1795.455933	143.164612	5.194859	1754.901245	119.128906	49.496269	1926.519287	141.995804	36.317966
613	6.12000000	1570.571655	1381.075562	483.323547	1453.050293	1391.187134	154.098434	1481.633301	1439.757324	335.220734	1628.660156	1320.311523	284.987335	1523.834351	1086.991821	562.418335	1424.628418	1106.251709	27.975784	1612.257874	881.936371	531.923096	1618.570740	1019.307922	67.192373	1647.011475	905.863647	379.808380	1572.651978	922.586792	131.320999	1457.484375	913.540405	347.105591	1432.456787	908.849854	266.194611	1444.970581	911.195129	306.650101	1444.187134	1141.882812	322.304749	1668.470703	1175.806030	245.060211	1605.059082	630.560486	444.548737	1592.181641	454.400635	353.889679	1516.607544	260.157379	403.069489	1471.033813	72.826721	331.980469	1421.751099	60.653893	283.633484	1592.027832	45.752506	296.560303	1634.065796	723.316650	14.617982	1742.701416	547.479492	37.289421	1717.056152	345.985107	-21.465126	1797.449097	140.124832	9.465239	1756.844116	116.685127	53.121033	1928.319458	138.663315	40.910545
